<?xml version="1.0" encoding="UTF-8" standalone="no" ?>
<!DOCTYPE svg PUBLIC "-//W3C//DTD SVG 1.1//EN" "http://www.w3.org/Graphics/SVG/1.1/DTD/svg11.dtd">
<svg xmlns="http://www.w3.org/2000/svg" xmlns:xlink="http://www.w3.org/1999/xlink" version="1.1" width="1024" height="1024" viewBox="0 0 1024 1024" xml:space="preserve">
<desc>Created with Fabric.js 3.1.0</desc>
<defs>
</defs>
<g transform="matrix(1 0 0 1 512 512)" id="background-logo"  >
<rect style="stroke: none; stroke-width: 1; stroke-dasharray: none; stroke-linecap: butt; stroke-dashoffset: 0; stroke-linejoin: miter; stroke-miterlimit: 4; fill: rgb(255,255,255); fill-rule: nonzero; opacity: 1;"  paint-order="stroke"  x="-512" y="-512" rx="0" ry="0" width="1024" height="1024" />
</g>
<g transform="matrix(1.5745007680491552 0 0 1.5745007680491552 451.8534366236321 472.5392552570211)"  >
<path style="stroke: none; stroke-width: 1; stroke-dasharray: none; stroke-linecap: butt; stroke-dashoffset: 0; stroke-linejoin: miter; stroke-miterlimit: 4; fill: rgb(66,133,244); fill-rule: nonzero; opacity: 1;"  paint-order="stroke"  transform=" translate(-90.93, 10.5)" d="M 7.14 -23.1 L 0.28 -23.1 L 0.28 -28.88 L 20.58 -28.88 L 20.58 -23.1 L 13.72 -23.1 L 13.72 0 L 7.14 0 L 7.14 -23.1 Z M 29.16 0 L 22.96 0 L 22.96 -30.1 L 29.16 -30.1 L 29.16 -16.07 L 29.23 -16.07 Q 31.64 -18.48 34.37 -18.48 L 34.37 -18.48 Q 35.7 -18.48 37.01 -18.13 Q 38.33 -17.78 39.53 -17.05 Q 40.74 -16.31 41.49 -14.96 Q 42.25 -13.62 42.25 -11.83 L 42.25 -11.83 L 42.25 0 L 36.05 0 L 36.05 -10.15 Q 36.05 -11.55 35.16 -12.6 Q 34.27 -13.65 32.83 -13.65 L 32.83 -13.65 Q 31.43 -13.65 30.29 -12.57 Q 29.16 -11.48 29.16 -10.15 L 29.16 -10.15 L 29.16 0 Z M 64.26 -8.12 L 64.26 -8.12 L 51.24 -8.12 Q 51.24 -6.23 52.47 -5.32 Q 53.69 -4.41 55.13 -4.41 L 55.13 -4.41 Q 56.63 -4.41 57.51 -4.81 Q 58.38 -5.22 59.5 -6.41 L 59.5 -6.41 L 63.98 -4.17 Q 61.18 0.53 54.67 0.53 L 54.67 0.53 Q 50.61 0.53 47.71 -2.26 Q 44.8 -5.04 44.8 -8.96 Q 44.8 -12.88 47.71 -15.68 Q 50.61 -18.48 54.67 -18.48 L 54.67 -18.48 Q 58.94 -18.48 61.62 -16.01 Q 64.3 -13.55 64.3 -8.96 L 64.3 -8.96 Q 64.3 -8.33 64.26 -8.12 Z M 51.42 -11.55 L 51.42 -11.55 L 58.24 -11.55 Q 58.03 -12.95 57.14 -13.7 Q 56.25 -14.46 54.85 -14.46 L 54.85 -14.46 Q 53.31 -14.46 52.4 -13.65 Q 51.49 -12.85 51.42 -11.55 Z M 79.98 -16.17 L 93.31 -16.17 L 93.31 -9.91 Q 92.19 -4.76 88.41 -2.12 Q 84.63 0.53 79.98 0.53 L 79.98 0.53 Q 74.13 0.53 70.02 -3.85 Q 65.91 -8.23 65.91 -14.42 L 65.91 -14.42 Q 65.91 -20.72 69.93 -25.06 Q 73.96 -29.4 79.98 -29.4 L 79.98 -29.4 Q 87.01 -29.4 91.11 -24.47 L 91.11 -24.47 L 86.8 -19.74 Q 84.49 -23.45 80.36 -23.45 L 80.36 -23.45 Q 77.32 -23.45 75.16 -20.81 Q 73.01 -18.17 73.01 -14.42 L 73.01 -14.42 Q 73.01 -10.75 75.16 -8.14 Q 77.32 -5.53 80.36 -5.53 L 80.36 -5.53 Q 82.88 -5.53 84.75 -7.05 Q 86.63 -8.58 86.63 -11.1 L 86.63 -11.1 L 79.98 -11.1 L 79.98 -16.17 Z M 114.38 -8.12 L 114.38 -8.12 L 101.36 -8.12 Q 101.36 -6.23 102.59 -5.32 Q 103.81 -4.41 105.25 -4.41 L 105.25 -4.41 Q 106.75 -4.41 107.63 -4.81 Q 108.5 -5.22 109.62 -6.41 L 109.62 -6.41 L 114.1 -4.17 Q 111.3 0.53 104.79 0.53 L 104.79 0.53 Q 100.73 0.53 97.83 -2.26 Q 94.92 -5.04 94.92 -8.96 Q 94.92 -12.88 97.83 -15.68 Q 100.73 -18.48 104.79 -18.48 L 104.79 -18.48 Q 109.06 -18.48 111.74 -16.01 Q 114.42 -13.55 114.42 -8.96 L 114.42 -8.96 Q 114.42 -8.33 114.38 -8.12 Z M 101.54 -11.55 L 101.54 -11.55 L 108.36 -11.55 Q 108.15 -12.95 107.26 -13.7 Q 106.37 -14.46 104.97 -14.46 L 104.97 -14.46 Q 103.43 -14.46 102.52 -13.65 Q 101.61 -12.85 101.54 -11.55 Z M 135.49 -8.12 L 135.49 -8.12 L 122.47 -8.12 Q 122.47 -6.23 123.69 -5.32 Q 124.92 -4.41 126.35 -4.41 L 126.35 -4.41 Q 127.86 -4.41 128.73 -4.81 Q 129.61 -5.22 130.73 -6.41 L 130.73 -6.41 L 135.21 -4.17 Q 132.41 0.53 125.9 0.53 L 125.9 0.53 Q 121.84 0.53 118.93 -2.26 Q 116.03 -5.04 116.03 -8.96 Q 116.03 -12.88 118.93 -15.68 Q 121.84 -18.48 125.9 -18.48 L 125.9 -18.48 Q 130.17 -18.48 132.84 -16.01 Q 135.52 -13.55 135.52 -8.96 L 135.52 -8.96 Q 135.52 -8.33 135.49 -8.12 Z M 122.64 -11.55 L 122.64 -11.55 L 129.47 -11.55 Q 129.26 -12.95 128.36 -13.7 Q 127.47 -14.46 126.07 -14.46 L 126.07 -14.46 Q 124.53 -14.46 123.62 -13.65 Q 122.71 -12.85 122.64 -11.55 Z M 150.89 -17.96 L 158.94 -17.96 L 150.4 -9.38 L 159.78 0 L 151.8 0 L 144.62 -7.18 L 144.62 0 L 138.43 0 L 138.43 -30.1 L 144.62 -30.1 L 144.62 -11.69 L 150.89 -17.96 Z M 170.17 -8.75 L 174.44 -17.96 L 181.58 -17.96 L 167.48 9.1 L 160.34 9.1 L 166.53 -2.8 L 158.03 -17.96 L 165.17 -17.96 L 170.17 -8.75 Z" stroke-linecap="round" />
</g>
<g transform="matrix(1.5745007680491552 0 0 1.5745007680491552 605.5566556139048 532.5771385850811)"  >
<path style="stroke: none; stroke-width: 1; stroke-dasharray: none; stroke-linecap: butt; stroke-dashoffset: 0; stroke-linejoin: miter; stroke-miterlimit: 4; fill: rgb(84,84,85); fill-rule: nonzero; opacity: 1;"  paint-order="stroke"  transform=" translate(-109.22500000000001, 8.56)" d="M 14.55 -5.95 L 16.98 -5.95 L 16.98 0 L 0.9 0 L 0.9 -2.08 L 4.13 -2.08 L 4.13 -15.08 L 0.9 -15.08 L 0.9 -17.15 L 9.9 -17.15 L 9.9 -15.08 L 6.7 -15.08 L 6.7 -2.08 L 14.55 -2.08 L 14.55 -5.95 Z M 30.18 -3.35 L 31.23 -1.75 Q 28.83 0.35 25.75 0.35 L 25.75 0.35 Q 24.08 0.35 22.58 -0.35 Q 21.08 -1.05 20.15 -2.4 Q 19.23 -3.75 19.23 -5.6 L 19.23 -5.6 Q 19.23 -7.58 20.18 -9.05 Q 21.13 -10.53 22.65 -11.31 Q 24.18 -12.1 25.85 -12.1 L 25.85 -12.1 Q 27.33 -12.1 28.49 -11.63 Q 29.65 -11.15 30.31 -10.3 Q 30.98 -9.45 30.98 -8.35 L 30.98 -8.35 Q 30.98 -6.7 29.56 -5.79 Q 28.15 -4.88 26.18 -4.88 L 26.18 -4.88 Q 24.9 -4.88 23.8 -5.14 Q 22.7 -5.4 21.58 -5.9 L 21.58 -5.9 L 21.58 -5.68 Q 21.58 -4.5 22.14 -3.6 Q 22.7 -2.7 23.65 -2.23 Q 24.6 -1.75 25.73 -1.75 L 25.73 -1.75 Q 28.28 -1.75 30.18 -3.35 L 30.18 -3.35 Z M 26.03 -10.15 Q 24.68 -10.15 23.51 -9.38 Q 22.35 -8.6 21.85 -7.28 L 21.85 -7.28 Q 23.75 -6.6 25.65 -6.6 L 25.65 -6.6 Q 26.9 -6.6 27.71 -7.06 Q 28.53 -7.53 28.53 -8.35 L 28.53 -8.35 Q 28.53 -9.15 27.83 -9.65 Q 27.13 -10.15 26.03 -10.15 L 26.03 -10.15 Z M 46.15 -2.08 L 46.65 -0.3 Q 45.83 0.2 44.73 0.2 L 44.73 0.2 Q 43.8 0.2 43.16 -0.34 Q 42.53 -0.88 42.28 -1.88 L 42.28 -1.88 Q 39.78 0.35 37.33 0.35 L 37.33 0.35 Q 35.6 0.35 34.4 -0.63 Q 33.2 -1.6 33.2 -3.35 L 33.2 -3.35 Q 33.2 -4.55 33.88 -5.44 Q 34.55 -6.33 35.69 -6.79 Q 36.83 -7.25 38.15 -7.25 L 38.15 -7.25 Q 39.28 -7.25 40.23 -7.04 Q 41.18 -6.83 42.18 -6.43 L 42.18 -6.43 L 42.18 -7.53 Q 42.18 -8.8 41.33 -9.4 Q 40.48 -10 39.1 -10 L 39.1 -10 Q 37.15 -10 34.4 -8.93 L 34.4 -8.93 L 33.9 -10.83 Q 36.85 -12.08 39.4 -12.08 L 39.4 -12.08 Q 41.83 -12.08 43.16 -10.89 Q 44.5 -9.7 44.5 -7.43 L 44.5 -7.43 L 44.5 -3.1 Q 44.5 -1.88 45.38 -1.88 L 45.38 -1.88 Q 45.75 -1.88 46.15 -2.08 L 46.15 -2.08 Z M 35.63 -3.48 Q 35.63 -2.63 36.3 -2.16 Q 36.98 -1.7 37.95 -1.7 L 37.95 -1.7 Q 38.8 -1.7 39.9 -2.15 Q 41 -2.6 42.18 -3.48 L 42.18 -3.48 L 42.18 -4.8 Q 40.48 -5.4 38.58 -5.45 L 38.58 -5.45 Q 37.35 -5.45 36.49 -4.94 Q 35.63 -4.42 35.63 -3.48 L 35.63 -3.48 Z M 58.45 -12.08 L 59.5 -12.08 L 59.5 -7.08 L 57.33 -7.08 L 57.33 -9.65 Q 56.35 -9.65 55.2 -8.93 Q 54.05 -8.2 52.83 -6.88 L 52.83 -6.88 L 52.83 -1.98 L 55.5 -1.98 L 55.5 0 L 47.73 0 L 47.73 -1.98 L 50.38 -1.98 L 50.38 -9.8 L 47.73 -9.8 L 47.73 -11.78 L 52.83 -11.78 L 52.83 -8.83 Q 54.15 -10.35 55.59 -11.21 Q 57.03 -12.08 58.45 -12.08 L 58.45 -12.08 Z M 76.23 -1.98 L 78.58 -1.98 L 78.58 0 L 71.63 0 L 71.63 -1.98 L 73.8 -1.98 L 73.8 -6.85 Q 73.8 -8.22 73.11 -9.01 Q 72.43 -9.8 71.15 -9.8 L 71.15 -9.8 Q 68.98 -9.8 66.55 -7.05 L 66.55 -7.05 L 66.55 -1.98 L 68.73 -1.98 L 68.73 0 L 61.45 0 L 61.45 -1.98 L 64.1 -1.98 L 64.1 -9.8 L 61.45 -9.8 L 61.45 -11.78 L 66.55 -11.78 L 66.55 -9 Q 67.95 -10.55 69.24 -11.31 Q 70.53 -12.08 72 -12.08 L 72 -12.08 Q 74.03 -12.08 75.13 -10.78 Q 76.23 -9.47 76.23 -6.93 L 76.23 -6.93 L 76.23 -1.98 Z M 105.15 -0.15 Q 103.78 0.33 102.23 0.33 L 102.23 0.33 Q 100.4 0.33 98.63 -0.53 L 98.63 -0.53 Q 96.6 0.38 93.88 0.38 L 93.88 0.38 Q 92 0.38 90.49 -0.2 Q 88.98 -0.78 88.11 -1.84 Q 87.25 -2.9 87.25 -4.33 L 87.25 -4.33 Q 87.25 -6.05 88.43 -7.21 Q 89.6 -8.38 92.1 -9.33 L 92.1 -9.33 Q 91.85 -10.55 91.85 -11.95 L 91.85 -11.95 Q 91.85 -13.5 92.5 -14.75 Q 93.15 -16 94.28 -16.71 Q 95.4 -17.43 96.8 -17.43 L 96.8 -17.43 Q 98.05 -17.43 98.99 -16.93 Q 99.93 -16.43 100.44 -15.59 Q 100.95 -14.75 100.95 -13.75 L 100.95 -13.75 Q 100.95 -11.95 99.39 -10.54 Q 97.83 -9.13 94.88 -8.22 L 94.88 -8.22 Q 95.45 -6.55 96.44 -5.16 Q 97.43 -3.78 98.65 -2.88 L 98.65 -2.88 Q 99.75 -3.6 100.35 -4.56 Q 100.95 -5.53 100.95 -6.63 L 100.95 -6.63 Q 100.95 -7.28 100.79 -7.79 Q 100.63 -8.3 100.3 -8.83 L 100.3 -8.83 L 102.4 -9.75 Q 103.35 -8.25 103.35 -6.63 L 103.35 -6.63 Q 103.35 -5.4 102.69 -4.11 Q 102.03 -2.83 100.75 -1.83 L 100.75 -1.83 Q 101.43 -1.63 102.05 -1.63 L 102.05 -1.63 Q 103.53 -1.63 104.73 -2.05 L 104.73 -2.05 L 105.15 -0.15 Z M 96.85 -15.43 Q 96.23 -15.43 95.63 -15.04 Q 95.03 -14.65 94.64 -13.86 Q 94.25 -13.08 94.25 -11.95 L 94.25 -11.95 Q 94.25 -11 94.4 -10.13 L 94.4 -10.13 Q 98.55 -11.45 98.55 -13.7 L 98.55 -13.7 Q 98.55 -14.5 98.08 -14.96 Q 97.6 -15.43 96.85 -15.43 L 96.85 -15.43 Z M 94.03 -1.63 Q 95.33 -1.63 96.45 -1.93 L 96.45 -1.93 Q 95.2 -2.98 94.21 -4.39 Q 93.23 -5.8 92.63 -7.45 L 92.63 -7.45 Q 91.05 -6.83 90.34 -6.14 Q 89.63 -5.45 89.63 -4.48 L 89.63 -4.48 Q 89.63 -3.2 90.85 -2.41 Q 92.08 -1.63 94.03 -1.63 L 94.03 -1.63 Z M 122.4 -9.7 Q 125.7 -8.78 127.38 -7.53 Q 129.05 -6.28 129.05 -4.2 L 129.05 -4.2 Q 129.05 -2.85 128.31 -1.81 Q 127.58 -0.78 126.28 -0.23 Q 124.98 0.33 123.35 0.33 L 123.35 0.33 Q 121.58 0.33 119.98 -0.43 Q 118.38 -1.18 117.03 -2.53 L 117.03 -2.53 L 117.03 -0.03 L 114.75 -0.03 L 114.75 -5.8 L 116.2 -5.88 Q 117.53 -3.95 119.43 -2.85 Q 121.33 -1.75 123.2 -1.75 L 123.2 -1.75 Q 124.6 -1.75 125.49 -2.35 Q 126.38 -2.95 126.38 -3.98 L 126.38 -3.98 Q 126.38 -5.1 125.13 -5.91 Q 123.88 -6.73 120.88 -7.5 L 120.88 -7.5 Q 117.75 -8.33 116.3 -9.66 Q 114.85 -11 114.85 -12.95 L 114.85 -12.95 Q 114.85 -14.3 115.59 -15.34 Q 116.33 -16.38 117.58 -16.94 Q 118.83 -17.5 120.3 -17.5 L 120.3 -17.5 Q 123.78 -17.5 125.93 -14.95 L 125.93 -14.95 L 125.93 -17.15 L 128.2 -17.15 L 128.2 -11.45 L 126.8 -11.38 Q 125.75 -13.38 124.23 -14.4 Q 122.7 -15.43 120.88 -15.43 L 120.88 -15.43 Q 119.4 -15.43 118.46 -14.79 Q 117.53 -14.15 117.53 -13.08 L 117.53 -13.08 Q 117.53 -11.98 118.66 -11.19 Q 119.8 -10.4 122.4 -9.7 L 122.4 -9.7 Z M 145.92 -2 L 146.47 -0.23 Q 145.63 0.25 144.6 0.25 L 144.6 0.25 Q 143.42 0.25 142.7 -0.45 Q 141.97 -1.15 141.88 -2.45 L 141.88 -2.45 Q 140.63 -1.07 139.42 -0.38 Q 138.22 0.33 136.9 0.33 L 136.9 0.33 Q 134.95 0.33 133.89 -0.98 Q 132.82 -2.27 132.82 -4.8 L 132.82 -4.8 L 132.82 -9.8 L 130.47 -9.8 L 130.47 -11.78 L 135.28 -11.78 L 135.28 -4.88 Q 135.28 -3.48 135.86 -2.71 Q 136.45 -1.95 137.75 -1.95 L 137.75 -1.95 Q 139.67 -1.95 141.85 -4.38 L 141.85 -4.38 L 141.85 -9.8 L 139.7 -9.8 L 139.7 -11.78 L 144.3 -11.78 L 144.3 -3.03 Q 144.3 -1.8 145.15 -1.8 L 145.15 -1.8 Q 145.65 -1.8 145.92 -2 L 145.92 -2 Z M 158.53 -3.5 L 159.63 -1.9 Q 157.3 0.35 154.2 0.35 L 154.2 0.35 Q 152.55 0.35 151.1 -0.43 Q 149.65 -1.2 148.78 -2.61 Q 147.9 -4.03 147.9 -5.85 L 147.9 -5.85 Q 147.9 -7.58 148.7 -9.01 Q 149.5 -10.45 150.85 -11.28 Q 152.2 -12.1 153.78 -12.1 L 153.78 -12.1 Q 156.28 -12.1 157.68 -10.33 L 157.68 -10.33 L 157.68 -11.78 L 159.45 -11.78 L 159.45 -7.65 L 158.4 -7.58 Q 157.18 -10.08 154.5 -10.08 L 154.5 -10.08 Q 153.35 -10.08 152.43 -9.54 Q 151.5 -9 150.97 -8.05 Q 150.45 -7.1 150.45 -5.88 L 150.45 -5.88 Q 150.45 -4.67 151.01 -3.73 Q 151.57 -2.78 152.49 -2.26 Q 153.4 -1.75 154.45 -1.75 L 154.45 -1.75 Q 155.68 -1.73 156.61 -2.18 Q 157.55 -2.63 158.53 -3.5 L 158.53 -3.5 Z M 172.03 -3.5 L 173.13 -1.9 Q 170.8 0.35 167.7 0.35 L 167.7 0.35 Q 166.05 0.35 164.6 -0.43 Q 163.15 -1.2 162.28 -2.61 Q 161.4 -4.03 161.4 -5.85 L 161.4 -5.85 Q 161.4 -7.58 162.2 -9.01 Q 163 -10.45 164.35 -11.28 Q 165.7 -12.1 167.28 -12.1 L 167.28 -12.1 Q 169.78 -12.1 171.18 -10.33 L 171.18 -10.33 L 171.18 -11.78 L 172.95 -11.78 L 172.95 -7.65 L 171.9 -7.58 Q 170.68 -10.08 168 -10.08 L 168 -10.08 Q 166.85 -10.08 165.93 -9.54 Q 165 -9 164.47 -8.05 Q 163.95 -7.1 163.95 -5.88 L 163.95 -5.88 Q 163.95 -4.67 164.51 -3.73 Q 165.07 -2.78 165.99 -2.26 Q 166.9 -1.75 167.95 -1.75 L 167.95 -1.75 Q 169.18 -1.73 170.11 -2.18 Q 171.05 -2.63 172.03 -3.5 L 172.03 -3.5 Z M 185.85 -3.35 L 186.9 -1.75 Q 184.5 0.35 181.43 0.35 L 181.43 0.35 Q 179.75 0.35 178.25 -0.35 Q 176.75 -1.05 175.82 -2.4 Q 174.9 -3.75 174.9 -5.6 L 174.9 -5.6 Q 174.9 -7.58 175.85 -9.05 Q 176.8 -10.53 178.32 -11.31 Q 179.85 -12.1 181.53 -12.1 L 181.53 -12.1 Q 183 -12.1 184.16 -11.63 Q 185.32 -11.15 185.99 -10.3 Q 186.65 -9.45 186.65 -8.35 L 186.65 -8.35 Q 186.65 -6.7 185.24 -5.79 Q 183.82 -4.88 181.85 -4.88 L 181.85 -4.88 Q 180.57 -4.88 179.47 -5.14 Q 178.38 -5.4 177.25 -5.9 L 177.25 -5.9 L 177.25 -5.68 Q 177.25 -4.5 177.81 -3.6 Q 178.38 -2.7 179.32 -2.23 Q 180.28 -1.75 181.4 -1.75 L 181.4 -1.75 Q 183.95 -1.75 185.85 -3.35 L 185.85 -3.35 Z M 181.7 -10.15 Q 180.35 -10.15 179.19 -9.38 Q 178.03 -8.6 177.53 -7.28 L 177.53 -7.28 Q 179.43 -6.6 181.32 -6.6 L 181.32 -6.6 Q 182.57 -6.6 183.39 -7.06 Q 184.2 -7.53 184.2 -8.35 L 184.2 -8.35 Q 184.2 -9.15 183.5 -9.65 Q 182.8 -10.15 181.7 -10.15 L 181.7 -10.15 Z M 199.82 -3.35 L 200.88 -1.75 Q 198.47 0.35 195.4 0.35 L 195.4 0.35 Q 193.72 0.35 192.22 -0.35 Q 190.72 -1.05 189.8 -2.4 Q 188.88 -3.75 188.88 -5.6 L 188.88 -5.6 Q 188.88 -7.58 189.82 -9.05 Q 190.78 -10.53 192.3 -11.31 Q 193.82 -12.1 195.5 -12.1 L 195.5 -12.1 Q 196.97 -12.1 198.14 -11.63 Q 199.3 -11.15 199.96 -10.3 Q 200.63 -9.45 200.63 -8.35 L 200.63 -8.35 Q 200.63 -6.7 199.21 -5.79 Q 197.8 -4.88 195.82 -4.88 L 195.82 -4.88 Q 194.55 -4.88 193.45 -5.14 Q 192.35 -5.4 191.22 -5.9 L 191.22 -5.9 L 191.22 -5.68 Q 191.22 -4.5 191.79 -3.6 Q 192.35 -2.7 193.3 -2.23 Q 194.25 -1.75 195.38 -1.75 L 195.38 -1.75 Q 197.92 -1.75 199.82 -3.35 L 199.82 -3.35 Z M 195.67 -10.15 Q 194.32 -10.15 193.16 -9.38 Q 192 -8.6 191.5 -7.28 L 191.5 -7.28 Q 193.4 -6.6 195.3 -6.6 L 195.3 -6.6 Q 196.55 -6.6 197.36 -7.06 Q 198.17 -7.53 198.17 -8.35 L 198.17 -8.35 Q 198.17 -9.15 197.47 -9.65 Q 196.78 -10.15 195.67 -10.15 L 195.67 -10.15 Z M 217.02 -2.02 L 217.55 -0.23 Q 217.2 -0.03 216.7 0.11 Q 216.2 0.25 215.65 0.25 L 215.65 0.25 Q 214.72 0.25 214.05 -0.24 Q 213.38 -0.73 213.13 -1.65 L 213.13 -1.65 Q 212.13 -0.75 211.01 -0.2 Q 209.9 0.35 208.55 0.35 L 208.55 0.35 Q 207.02 0.35 205.71 -0.43 Q 204.4 -1.2 203.63 -2.59 Q 202.85 -3.98 202.85 -5.73 L 202.85 -5.73 Q 202.85 -7.55 203.66 -9.01 Q 204.47 -10.48 205.88 -11.29 Q 207.27 -12.1 208.97 -12.1 L 208.97 -12.1 Q 211.15 -12.1 212.97 -10.5 L 212.97 -10.5 L 212.97 -15.18 L 210.32 -15.18 L 210.32 -17.15 L 215.38 -17.15 L 215.38 -3.03 Q 215.38 -1.83 216.2 -1.83 L 216.2 -1.83 Q 216.75 -1.83 217.02 -2.02 L 217.02 -2.02 Z M 205.4 -5.75 Q 205.4 -3.95 206.41 -2.85 Q 207.42 -1.75 209.05 -1.75 L 209.05 -1.75 Q 210.92 -1.75 212.97 -3.45 L 212.97 -3.45 L 212.97 -8.63 Q 211.22 -10.03 209.52 -10.03 L 209.52 -10.03 Q 208.35 -10.03 207.4 -9.47 Q 206.45 -8.93 205.92 -7.95 Q 205.4 -6.98 205.4 -5.75 L 205.4 -5.75 Z" stroke-linecap="round" />
</g>
<g transform="matrix(-0.9401344298526334 0 0 -0.9401344298526334 212.61452349423064 526.0715017593291)" style="" id="logo-logo"  >
	<g transform="matrix(0.302 0 0 -0.302 75.54602000000006 8.431999999999988)"  >
<path style="stroke: none; stroke-width: 1; stroke-dasharray: none; stroke-linecap: butt; stroke-dashoffset: 0; stroke-linejoin: miter; stroke-miterlimit: 10; fill: rgb(66,133,244); fill-rule: evenodd; opacity: 1;"  paint-order="stroke"  transform=" translate(-1864.9050000000002, -1514.3449999999998)" d="m 1785.4 1410.07 l 126.75 126.75 l -52.52 52.56 l -74.23 -74.24 l -26.98 26.97 l 106.49 106.48 l 106.48 -106.5 l -159.03 -158.98 l 52.55 -52.56 c 18.51 -18.5 37.02 -37 55.5 -55.51 c -5.74 31.26 -11.49 62.5 -17.26 93.76 l 173.3 173.31 c -70.5 70.52 -141.02 141.03 -211.54 211.54 l -211.55 -211.56 c 44 -44 88.03 -88.01 132.04 -132.02" stroke-linecap="round" />
</g>
	<g transform="matrix(0.302 0 0 -0.302 -8.423979999999915 75.53799999999998)"  >
<path style="stroke: none; stroke-width: 1; stroke-dasharray: none; stroke-linecap: butt; stroke-dashoffset: 0; stroke-linejoin: miter; stroke-miterlimit: 10; fill: rgb(52,168,83); fill-rule: evenodd; opacity: 1;"  paint-order="stroke"  transform=" translate(-1588.2649999999999, -1293.2350000000001)" d="m 1616.02 1081.68 c 70.5 70.52 141.04 141.02 211.56 211.55 l -211.56 211.56 c -44.02 -44.02 -88.03 -88.02 -132.05 -132.06 l 126.76 -126.75 l 52.53 52.54 l -74.21 74.21 l 26.97 26.99 l 106.47 -106.49 l -106.47 -106.45 l -159.01 158.99 l -52.54 -52.54 c -18.51 -18.48 -37.01 -37.02 -55.52 -55.5 c 31.27 5.75 62.52 11.5 93.76 17.23 l 173.31 -173.28" stroke-linecap="round" />
</g>
	<g transform="matrix(0.302 0 0 -0.302 -75.53997999999996 -8.432000000000045)"  >
<path style="stroke: none; stroke-width: 1; stroke-dasharray: none; stroke-linecap: butt; stroke-dashoffset: 0; stroke-linejoin: miter; stroke-miterlimit: 10; fill: rgb(251,188,5); fill-rule: evenodd; opacity: 1;"  paint-order="stroke"  transform=" translate(-1367.1350000000002, -1569.88)" d="m 1446.65 1674.15 l -126.76 -126.74 l 52.54 -52.54 l 74.22 74.22 l 26.96 -26.98 l -106.47 -106.47 l -106.48 106.45 l 159.03 159.03 l -52.55 52.56 c -18.5 18.49 -36.99 36.98 -55.5 55.51 c 5.75 -31.28 11.5 -62.54 17.25 -93.77 l -173.32 -173.31 c 70.52 -70.52 141.06 -141.03 211.58 -211.54 l 211.55 211.54 c -44.01 44.03 -88.04 88.04 -132.05 132.04" stroke-linecap="round" />
</g>
	<g transform="matrix(0.302 0 0 -0.302 8.43002000000007 -75.53799999999998)"  >
<path style="stroke: none; stroke-width: 1; stroke-dasharray: none; stroke-linecap: butt; stroke-dashoffset: 0; stroke-linejoin: miter; stroke-miterlimit: 10; fill: rgb(234,67,53); fill-rule: evenodd; opacity: 1;"  paint-order="stroke"  transform=" translate(-1643.78, -1790.995)" d="m 1404.47 1791 l 211.55 -211.56 c 44.03 43.99 88.04 88.02 132.05 132.04 l -126.76 126.76 l -52.54 -52.53 l 74.21 -74.21 l -26.96 -26.97 l -106.47 106.47 l 106.47 106.47 l 159.02 -159.02 l 52.54 52.55 c 18.51 18.48 37.01 37.01 55.51 55.48 c -31.25 -5.72 -62.5 -11.48 -93.77 -17.22 l -173.3 173.29 C 1545.5 1932.03 1475 1861.49 1404.47 1791" stroke-linecap="round" />
</g>
</g>
<g transform="matrix(1.5745007680491552 0 0 1.5745007680491552 691.067678025585 474.43457926924646)"  >
<path style="stroke: none; stroke-width: 0; stroke-dasharray: none; stroke-linecap: butt; stroke-dashoffset: 0; stroke-linejoin: miter; stroke-miterlimit: 4; fill: rgb(52,168,83); fill-rule: nonzero; opacity: 1;"  paint-order="stroke"  transform=" translate(-57.89000000000001, 14.785)" d="M 2.1 -28.88 L 8.68 -28.88 L 8.68 0 L 2.1 0 L 2.1 -28.88 Z M 19.08 0 L 12.88 0 L 12.88 -17.96 L 19.08 -17.96 L 19.08 -16.07 L 19.15 -16.07 Q 21.56 -18.48 24.29 -18.48 L 24.29 -18.48 Q 25.62 -18.48 26.93 -18.13 Q 28.25 -17.78 29.45 -17.05 Q 30.66 -16.31 31.41 -14.96 Q 32.17 -13.62 32.17 -11.83 L 32.17 -11.83 L 32.17 0 L 25.97 0 L 25.97 -10.15 Q 25.97 -11.55 25.08 -12.6 Q 24.19 -13.65 22.75 -13.65 L 22.75 -13.65 Q 21.35 -13.65 20.21 -12.57 Q 19.08 -11.48 19.08 -10.15 L 19.08 -10.15 L 19.08 0 Z M 37.24 -2.22 Q 34.72 -4.97 34.72 -8.96 Q 34.72 -12.95 37.24 -15.72 Q 39.76 -18.48 43.65 -18.48 L 43.65 -18.48 Q 47.22 -18.48 49.53 -16.24 L 49.53 -16.24 L 49.53 -30.1 L 55.72 -30.1 L 55.72 0 L 49.6 0 L 49.6 -2.03 L 49.53 -2.03 Q 47.22 0.53 43.65 0.53 L 43.65 0.53 Q 39.76 0.53 37.24 -2.22 Z M 42.51 -12.01 Q 41.3 -10.82 41.3 -8.96 Q 41.3 -7.11 42.46 -5.93 Q 43.61 -4.76 45.5 -4.76 L 45.5 -4.76 Q 47.32 -4.76 48.49 -5.95 Q 49.67 -7.14 49.67 -8.96 L 49.67 -8.96 Q 49.67 -10.82 48.46 -12.01 Q 47.25 -13.2 45.5 -13.2 L 45.5 -13.2 Q 43.72 -13.2 42.51 -12.01 Z M 60.52 -27.97 Q 61.6 -29.05 63.11 -29.05 Q 64.61 -29.05 65.7 -27.97 Q 66.78 -26.88 66.78 -25.38 Q 66.78 -23.87 65.7 -22.79 Q 64.61 -21.7 63.11 -21.7 Q 61.6 -21.7 60.52 -22.79 Q 59.43 -23.87 59.43 -25.38 Q 59.43 -26.88 60.52 -27.97 Z M 66.12 -17.96 L 59.92 -17.96 L 59.92 0 L 66.12 0 L 66.12 -17.96 Z M 71.72 -2.22 Q 69.2 -4.97 69.2 -8.96 Q 69.2 -12.95 71.72 -15.72 Q 74.24 -18.48 78.12 -18.48 L 78.12 -18.48 Q 81.69 -18.48 84 -16.24 L 84 -16.24 L 84 -17.96 L 90.2 -17.96 L 90.2 0 L 84.07 0 L 84.07 -2.03 L 84 -2.03 Q 81.69 0.53 78.12 0.53 L 78.12 0.53 Q 74.24 0.53 71.72 -2.22 Z M 76.98 -12.01 Q 75.78 -10.82 75.78 -8.96 Q 75.78 -7.11 76.93 -5.93 Q 78.09 -4.76 79.98 -4.76 L 79.98 -4.76 Q 81.8 -4.76 82.97 -5.95 Q 84.14 -7.14 84.14 -8.96 L 84.14 -8.96 Q 84.14 -10.82 82.93 -12.01 Q 81.73 -13.2 79.98 -13.2 L 79.98 -13.2 Q 78.19 -13.2 76.98 -12.01 Z M 100.59 0 L 94.4 0 L 94.4 -17.96 L 100.59 -17.96 L 100.59 -16.07 L 100.66 -16.07 Q 103.08 -18.48 105.81 -18.48 L 105.81 -18.48 Q 107.14 -18.48 108.45 -18.13 Q 109.76 -17.78 110.97 -17.05 Q 112.18 -16.31 112.93 -14.96 Q 113.68 -13.62 113.68 -11.83 L 113.68 -11.83 L 113.68 0 L 107.49 0 L 107.49 -10.15 Q 107.49 -11.55 106.59 -12.6 Q 105.7 -13.65 104.27 -13.65 L 104.27 -13.65 Q 102.87 -13.65 101.73 -12.57 Q 100.59 -11.48 100.59 -10.15 L 100.59 -10.15 L 100.59 0 Z" stroke-linecap="round" />
</g>
</svg>