<?xml version="1.0" encoding="UTF-8" standalone="no" ?>
<!DOCTYPE svg PUBLIC "-//W3C//DTD SVG 1.1//EN" "http://www.w3.org/Graphics/SVG/1.1/DTD/svg11.dtd">
<svg xmlns="http://www.w3.org/2000/svg" xmlns:xlink="http://www.w3.org/1999/xlink" version="1.1" width="1024" height="1024" viewBox="0 0 1024 1024" xml:space="preserve">
<desc>Created with Fabric.js 3.1.0</desc>
<defs>
</defs>
<g transform="matrix(1 0 0 1 512 512)" id="background-logo"  >
<rect style="stroke: none; stroke-width: 1; stroke-dasharray: none; stroke-linecap: butt; stroke-dashoffset: 0; stroke-linejoin: miter; stroke-miterlimit: 4; fill: rgb(255,255,255); fill-rule: nonzero; opacity: 1;"  paint-order="stroke"  x="-512" y="-512" rx="0" ry="0" width="1024" height="1024" />
</g>
<g transform="matrix(1.5745007680491552 0 0 1.5745007680491552 468.87627304322564 449.32629650303)"  >
<path style="stroke: none; stroke-width: 1; stroke-dasharray: none; stroke-linecap: butt; stroke-dashoffset: 0; stroke-linejoin: miter; stroke-miterlimit: 4; fill: rgb(66,133,244); fill-rule: nonzero; opacity: 1;"  paint-order="stroke"  transform=" translate(-129.9, 15)" d="M 10.2 -33 L 0.4 -33 L 0.4 -41.25 L 29.4 -41.25 L 29.4 -33 L 19.6 -33 L 19.6 0 L 10.2 0 L 10.2 -33 Z M 41.65 0 L 32.8 0 L 32.8 -43 L 41.65 -43 L 41.65 -22.95 L 41.75 -22.95 Q 45.2 -26.4 49.1 -26.4 L 49.1 -26.4 Q 51 -26.4 52.88 -25.9 Q 54.75 -25.4 56.48 -24.35 Q 58.2 -23.3 59.28 -21.38 Q 60.35 -19.45 60.35 -16.9 L 60.35 -16.9 L 60.35 0 L 51.5 0 L 51.5 -14.5 Q 51.5 -16.5 50.23 -18 Q 48.95 -19.5 46.9 -19.5 L 46.9 -19.5 Q 44.9 -19.5 43.28 -17.95 Q 41.65 -16.4 41.65 -14.5 L 41.65 -14.5 L 41.65 0 Z M 91.8 -11.6 L 91.8 -11.6 L 73.2 -11.6 Q 73.2 -8.9 74.95 -7.6 Q 76.7 -6.3 78.75 -6.3 L 78.75 -6.3 Q 80.9 -6.3 82.15 -6.88 Q 83.4 -7.45 85 -9.15 L 85 -9.15 L 91.4 -5.95 Q 87.4 0.75 78.1 0.75 L 78.1 0.75 Q 72.3 0.75 68.15 -3.23 Q 64 -7.2 64 -12.8 Q 64 -18.4 68.15 -22.4 Q 72.3 -26.4 78.1 -26.4 L 78.1 -26.4 Q 84.2 -26.4 88.03 -22.88 Q 91.85 -19.35 91.85 -12.8 L 91.85 -12.8 Q 91.85 -11.9 91.8 -11.6 Z M 73.45 -16.5 L 73.45 -16.5 L 83.2 -16.5 Q 82.9 -18.5 81.63 -19.58 Q 80.35 -20.65 78.35 -20.65 L 78.35 -20.65 Q 76.15 -20.65 74.85 -19.5 Q 73.55 -18.35 73.45 -16.5 Z M 114.25 -23.1 L 133.3 -23.1 L 133.3 -14.15 Q 131.7 -6.8 126.3 -3.03 Q 120.9 0.75 114.25 0.75 L 114.25 0.75 Q 105.9 0.75 100.03 -5.5 Q 94.15 -11.75 94.15 -20.6 L 94.15 -20.6 Q 94.15 -29.6 99.9 -35.8 Q 105.65 -42 114.25 -42 L 114.25 -42 Q 124.3 -42 130.15 -34.95 L 130.15 -34.95 L 124 -28.2 Q 120.7 -33.5 114.8 -33.5 L 114.8 -33.5 Q 110.45 -33.5 107.38 -29.73 Q 104.3 -25.95 104.3 -20.6 L 104.3 -20.6 Q 104.3 -15.35 107.38 -11.63 Q 110.45 -7.9 114.8 -7.9 L 114.8 -7.9 Q 118.4 -7.9 121.08 -10.08 Q 123.75 -12.25 123.75 -15.85 L 123.75 -15.85 L 114.25 -15.85 L 114.25 -23.1 Z M 163.4 -11.6 L 163.4 -11.6 L 144.8 -11.6 Q 144.8 -8.9 146.55 -7.6 Q 148.3 -6.3 150.35 -6.3 L 150.35 -6.3 Q 152.5 -6.3 153.75 -6.88 Q 155 -7.45 156.6 -9.15 L 156.6 -9.15 L 163 -5.95 Q 159 0.75 149.7 0.75 L 149.7 0.75 Q 143.9 0.75 139.75 -3.23 Q 135.6 -7.2 135.6 -12.8 Q 135.6 -18.4 139.75 -22.4 Q 143.9 -26.4 149.7 -26.4 L 149.7 -26.4 Q 155.8 -26.4 159.63 -22.88 Q 163.45 -19.35 163.45 -12.8 L 163.45 -12.8 Q 163.45 -11.9 163.4 -11.6 Z M 145.05 -16.5 L 145.05 -16.5 L 154.8 -16.5 Q 154.5 -18.5 153.23 -19.58 Q 151.95 -20.65 149.95 -20.65 L 149.95 -20.65 Q 147.75 -20.65 146.45 -19.5 Q 145.15 -18.35 145.05 -16.5 Z M 193.55 -11.6 L 193.55 -11.6 L 174.95 -11.6 Q 174.95 -8.9 176.7 -7.6 Q 178.45 -6.3 180.5 -6.3 L 180.5 -6.3 Q 182.65 -6.3 183.9 -6.88 Q 185.15 -7.45 186.75 -9.15 L 186.75 -9.15 L 193.15 -5.95 Q 189.15 0.75 179.85 0.75 L 179.85 0.75 Q 174.05 0.75 169.9 -3.23 Q 165.75 -7.2 165.75 -12.8 Q 165.75 -18.4 169.9 -22.4 Q 174.05 -26.4 179.85 -26.4 L 179.85 -26.4 Q 185.95 -26.4 189.78 -22.88 Q 193.6 -19.35 193.6 -12.8 L 193.6 -12.8 Q 193.6 -11.9 193.55 -11.6 Z M 175.2 -16.5 L 175.2 -16.5 L 184.95 -16.5 Q 184.65 -18.5 183.38 -19.58 Q 182.1 -20.65 180.1 -20.65 L 180.1 -20.65 Q 177.9 -20.65 176.6 -19.5 Q 175.3 -18.35 175.2 -16.5 Z M 215.55 -25.65 L 227.05 -25.65 L 214.85 -13.4 L 228.25 0 L 216.85 0 L 206.6 -10.25 L 206.6 0 L 197.75 0 L 197.75 -43 L 206.6 -43 L 206.6 -16.7 L 215.55 -25.65 Z M 243.1 -12.5 L 249.2 -25.65 L 259.4 -25.65 L 239.25 13 L 229.05 13 L 237.9 -4 L 225.75 -25.65 L 235.95 -25.65 L 243.1 -12.5 Z" stroke-linecap="round" />
</g>
<g transform="matrix(1.5745007680491552 0 0 1.5745007680491552 737.0967552198543 512.4592409982888)"  >
<path style="stroke: none; stroke-width: 1; stroke-dasharray: none; stroke-linecap: butt; stroke-dashoffset: 0; stroke-linejoin: miter; stroke-miterlimit: 4; fill: rgb(217,217,216); fill-rule: nonzero; opacity: 1;"  paint-order="stroke"  transform=" translate(-122.33500000000001, 9.59)" d="M 16.3 -6.66 L 19.01 -6.66 L 19.01 0 L 1.01 0 L 1.01 -2.32 L 4.62 -2.32 L 4.62 -16.88 L 1.01 -16.88 L 1.01 -19.21 L 11.09 -19.21 L 11.09 -16.88 L 7.5 -16.88 L 7.5 -2.32 L 16.3 -2.32 L 16.3 -6.66 Z M 33.8 -3.75 L 34.97 -1.96 Q 32.28 0.39 28.84 0.39 L 28.84 0.39 Q 26.96 0.39 25.28 -0.39 Q 23.6 -1.18 22.57 -2.69 Q 21.53 -4.2 21.53 -6.27 L 21.53 -6.27 Q 21.53 -8.48 22.6 -10.14 Q 23.66 -11.79 25.37 -12.67 Q 27.08 -13.55 28.95 -13.55 L 28.95 -13.55 Q 30.6 -13.55 31.91 -13.02 Q 33.21 -12.49 33.95 -11.54 Q 34.69 -10.58 34.69 -9.35 L 34.69 -9.35 Q 34.69 -7.5 33.11 -6.48 Q 31.53 -5.46 29.32 -5.46 L 29.32 -5.46 Q 27.89 -5.46 26.66 -5.75 Q 25.42 -6.05 24.16 -6.61 L 24.16 -6.61 L 24.16 -6.36 Q 24.16 -5.04 24.79 -4.03 Q 25.42 -3.02 26.49 -2.49 Q 27.55 -1.96 28.81 -1.96 L 28.81 -1.96 Q 31.67 -1.96 33.8 -3.75 L 33.8 -3.75 Z M 29.15 -11.37 Q 27.64 -11.37 26.33 -10.5 Q 25.03 -9.63 24.47 -8.15 L 24.47 -8.15 Q 26.6 -7.39 28.73 -7.39 L 28.73 -7.39 Q 30.13 -7.39 31.04 -7.91 Q 31.95 -8.43 31.95 -9.35 L 31.95 -9.35 Q 31.95 -10.25 31.16 -10.81 Q 30.38 -11.37 29.15 -11.37 L 29.15 -11.37 Z M 51.69 -2.32 L 52.25 -0.34 Q 51.32 0.22 50.09 0.22 L 50.09 0.22 Q 49.06 0.22 48.34 -0.38 Q 47.63 -0.98 47.35 -2.1 L 47.35 -2.1 Q 44.55 0.39 41.8 0.39 L 41.8 0.39 Q 39.87 0.39 38.53 -0.7 Q 37.18 -1.79 37.18 -3.75 L 37.18 -3.75 Q 37.18 -5.1 37.94 -6.09 Q 38.7 -7.08 39.97 -7.6 Q 41.24 -8.12 42.73 -8.12 L 42.73 -8.12 Q 43.99 -8.12 45.05 -7.88 Q 46.12 -7.64 47.24 -7.2 L 47.24 -7.2 L 47.24 -8.43 Q 47.24 -9.86 46.28 -10.53 Q 45.33 -11.2 43.79 -11.2 L 43.79 -11.2 Q 41.61 -11.2 38.53 -10 L 38.53 -10 L 37.97 -12.12 Q 41.27 -13.52 44.13 -13.52 L 44.13 -13.52 Q 46.84 -13.52 48.34 -12.19 Q 49.84 -10.86 49.84 -8.32 L 49.84 -8.32 L 49.84 -3.47 Q 49.84 -2.1 50.82 -2.1 L 50.82 -2.1 Q 51.24 -2.1 51.69 -2.32 L 51.69 -2.32 Z M 39.9 -3.89 Q 39.9 -2.94 40.66 -2.42 Q 41.41 -1.9 42.5 -1.9 L 42.5 -1.9 Q 43.46 -1.9 44.69 -2.41 Q 45.92 -2.91 47.24 -3.89 L 47.24 -3.89 L 47.24 -5.38 Q 45.33 -6.05 43.2 -6.1 L 43.2 -6.1 Q 41.83 -6.1 40.87 -5.53 Q 39.9 -4.96 39.9 -3.89 L 39.9 -3.89 Z M 65.46 -13.52 L 66.64 -13.52 L 66.64 -7.92 L 64.2 -7.92 L 64.2 -10.81 Q 63.11 -10.81 61.82 -10 Q 60.54 -9.18 59.16 -7.7 L 59.16 -7.7 L 59.16 -2.21 L 62.16 -2.21 L 62.16 0 L 53.45 0 L 53.45 -2.21 L 56.42 -2.21 L 56.42 -10.98 L 53.45 -10.98 L 53.45 -13.19 L 59.16 -13.19 L 59.16 -9.88 Q 60.65 -11.59 62.26 -12.56 Q 63.87 -13.52 65.46 -13.52 L 65.46 -13.52 Z M 85.37 -2.21 L 88 -2.21 L 88 0 L 80.22 0 L 80.22 -2.21 L 82.66 -2.21 L 82.66 -7.67 Q 82.66 -9.21 81.89 -10.09 Q 81.12 -10.98 79.69 -10.98 L 79.69 -10.98 Q 77.25 -10.98 74.54 -7.9 L 74.54 -7.9 L 74.54 -2.21 L 76.97 -2.21 L 76.97 0 L 68.82 0 L 68.82 -2.21 L 71.79 -2.21 L 71.79 -10.98 L 68.82 -10.98 L 68.82 -13.19 L 74.54 -13.19 L 74.54 -10.08 Q 76.1 -11.82 77.55 -12.67 Q 78.99 -13.52 80.64 -13.52 L 80.64 -13.52 Q 82.91 -13.52 84.14 -12.07 Q 85.37 -10.61 85.37 -7.76 L 85.37 -7.76 L 85.37 -2.21 Z M 117.77 -0.17 Q 116.23 0.36 114.49 0.36 L 114.49 0.36 Q 112.45 0.36 110.46 -0.59 L 110.46 -0.59 Q 108.19 0.42 105.14 0.42 L 105.14 0.42 Q 103.04 0.42 101.35 -0.22 Q 99.65 -0.87 98.69 -2.06 Q 97.72 -3.25 97.72 -4.84 L 97.72 -4.84 Q 97.72 -6.78 99.04 -8.08 Q 100.35 -9.38 103.15 -10.44 L 103.15 -10.44 Q 102.87 -11.82 102.87 -13.38 L 102.87 -13.38 Q 102.87 -15.12 103.6 -16.52 Q 104.33 -17.92 105.59 -18.72 Q 106.85 -19.52 108.42 -19.52 L 108.42 -19.52 Q 109.82 -19.52 110.87 -18.96 Q 111.92 -18.4 112.49 -17.46 Q 113.06 -16.52 113.06 -15.4 L 113.06 -15.4 Q 113.06 -13.38 111.31 -11.8 Q 109.56 -10.22 106.26 -9.21 L 106.26 -9.21 Q 106.9 -7.34 108.01 -5.78 Q 109.12 -4.23 110.49 -3.22 L 110.49 -3.22 Q 111.72 -4.03 112.39 -5.11 Q 113.06 -6.19 113.06 -7.42 L 113.06 -7.42 Q 113.06 -8.15 112.88 -8.72 Q 112.7 -9.3 112.34 -9.88 L 112.34 -9.88 L 114.69 -10.92 Q 115.75 -9.24 115.75 -7.42 L 115.75 -7.42 Q 115.75 -6.05 115.01 -4.61 Q 114.27 -3.16 112.84 -2.04 L 112.84 -2.04 Q 113.6 -1.82 114.3 -1.82 L 114.3 -1.82 Q 115.95 -1.82 117.29 -2.3 L 117.29 -2.3 L 117.77 -0.17 Z M 108.47 -17.28 Q 107.77 -17.28 107.1 -16.84 Q 106.43 -16.41 105.99 -15.53 Q 105.56 -14.64 105.56 -13.38 L 105.56 -13.38 Q 105.56 -12.32 105.73 -11.34 L 105.73 -11.34 Q 110.38 -12.82 110.38 -15.34 L 110.38 -15.34 Q 110.38 -16.24 109.84 -16.76 Q 109.31 -17.28 108.47 -17.28 L 108.47 -17.28 Z M 105.31 -1.82 Q 106.76 -1.82 108.02 -2.16 L 108.02 -2.16 Q 106.62 -3.33 105.52 -4.91 Q 104.41 -6.5 103.74 -8.34 L 103.74 -8.34 Q 101.98 -7.64 101.18 -6.87 Q 100.38 -6.1 100.38 -5.01 L 100.38 -5.01 Q 100.38 -3.58 101.75 -2.7 Q 103.12 -1.82 105.31 -1.82 L 105.31 -1.82 Z M 137.09 -10.86 Q 140.78 -9.83 142.66 -8.43 Q 144.54 -7.03 144.54 -4.7 L 144.54 -4.7 Q 144.54 -3.19 143.71 -2.03 Q 142.88 -0.87 141.43 -0.25 Q 139.97 0.36 138.15 0.36 L 138.15 0.36 Q 136.16 0.36 134.37 -0.48 Q 132.58 -1.32 131.07 -2.83 L 131.07 -2.83 L 131.07 -0.03 L 128.52 -0.03 L 128.52 -6.5 L 130.14 -6.58 Q 131.63 -4.42 133.76 -3.19 Q 135.88 -1.96 137.98 -1.96 L 137.98 -1.96 Q 139.55 -1.96 140.55 -2.63 Q 141.54 -3.3 141.54 -4.45 L 141.54 -4.45 Q 141.54 -5.71 140.14 -6.62 Q 138.74 -7.53 135.38 -8.4 L 135.38 -8.4 Q 131.88 -9.32 130.26 -10.82 Q 128.63 -12.32 128.63 -14.5 L 128.63 -14.5 Q 128.63 -16.02 129.46 -17.18 Q 130.28 -18.34 131.68 -18.97 Q 133.08 -19.6 134.74 -19.6 L 134.74 -19.6 Q 138.63 -19.6 141.04 -16.74 L 141.04 -16.74 L 141.04 -19.21 L 143.58 -19.21 L 143.58 -12.82 L 142.02 -12.74 Q 140.84 -14.98 139.13 -16.13 Q 137.42 -17.28 135.38 -17.28 L 135.38 -17.28 Q 133.73 -17.28 132.68 -16.56 Q 131.63 -15.85 131.63 -14.64 L 131.63 -14.64 Q 131.63 -13.41 132.9 -12.53 Q 134.18 -11.65 137.09 -10.86 L 137.09 -10.86 Z M 163.44 -2.24 L 164.05 -0.25 Q 163.1 0.28 161.95 0.28 L 161.95 0.28 Q 160.64 0.28 159.82 -0.5 Q 159.01 -1.29 158.9 -2.74 L 158.9 -2.74 Q 157.5 -1.2 156.16 -0.42 Q 154.81 0.36 153.33 0.36 L 153.33 0.36 Q 151.14 0.36 149.95 -1.09 Q 148.76 -2.55 148.76 -5.38 L 148.76 -5.38 L 148.76 -10.98 L 146.13 -10.98 L 146.13 -13.19 L 151.51 -13.19 L 151.51 -5.46 Q 151.51 -3.89 152.17 -3.04 Q 152.82 -2.18 154.28 -2.18 L 154.28 -2.18 Q 156.44 -2.18 158.87 -4.9 L 158.87 -4.9 L 158.87 -10.98 L 156.46 -10.98 L 156.46 -13.19 L 161.62 -13.19 L 161.62 -3.39 Q 161.62 -2.02 162.57 -2.02 L 162.57 -2.02 Q 163.13 -2.02 163.44 -2.24 L 163.44 -2.24 Z M 177.55 -3.92 L 178.78 -2.13 Q 176.18 0.39 172.7 0.39 L 172.7 0.39 Q 170.86 0.39 169.23 -0.48 Q 167.61 -1.34 166.63 -2.93 Q 165.65 -4.51 165.65 -6.55 L 165.65 -6.55 Q 165.65 -8.48 166.54 -10.09 Q 167.44 -11.7 168.95 -12.63 Q 170.46 -13.55 172.23 -13.55 L 172.23 -13.55 Q 175.03 -13.55 176.6 -11.56 L 176.6 -11.56 L 176.6 -13.19 L 178.58 -13.19 L 178.58 -8.57 L 177.41 -8.48 Q 176.04 -11.28 173.04 -11.28 L 173.04 -11.28 Q 171.75 -11.28 170.72 -10.68 Q 169.68 -10.08 169.09 -9.02 Q 168.5 -7.95 168.5 -6.58 L 168.5 -6.58 Q 168.5 -5.24 169.13 -4.17 Q 169.76 -3.11 170.79 -2.53 Q 171.81 -1.96 172.98 -1.96 L 172.98 -1.96 Q 174.36 -1.93 175.41 -2.44 Q 176.46 -2.94 177.55 -3.92 L 177.55 -3.92 Z M 192.67 -3.92 L 193.9 -2.13 Q 191.3 0.39 187.82 0.39 L 187.82 0.39 Q 185.98 0.39 184.35 -0.48 Q 182.73 -1.34 181.75 -2.93 Q 180.77 -4.51 180.77 -6.55 L 180.77 -6.55 Q 180.77 -8.48 181.66 -10.09 Q 182.56 -11.7 184.07 -12.63 Q 185.58 -13.55 187.35 -13.55 L 187.35 -13.55 Q 190.15 -13.55 191.72 -11.56 L 191.72 -11.56 L 191.72 -13.19 L 193.7 -13.19 L 193.7 -8.57 L 192.53 -8.48 Q 191.16 -11.28 188.16 -11.28 L 188.16 -11.28 Q 186.87 -11.28 185.84 -10.68 Q 184.8 -10.08 184.21 -9.02 Q 183.62 -7.95 183.62 -6.58 L 183.62 -6.58 Q 183.62 -5.24 184.25 -4.17 Q 184.88 -3.11 185.91 -2.53 Q 186.93 -1.96 188.1 -1.96 L 188.1 -1.96 Q 189.48 -1.93 190.53 -2.44 Q 191.58 -2.94 192.67 -3.92 L 192.67 -3.92 Z M 208.15 -3.75 L 209.33 -1.96 Q 206.64 0.39 203.2 0.39 L 203.2 0.39 Q 201.32 0.39 199.64 -0.39 Q 197.96 -1.18 196.92 -2.69 Q 195.89 -4.2 195.89 -6.27 L 195.89 -6.27 Q 195.89 -8.48 196.95 -10.14 Q 198.02 -11.79 199.72 -12.67 Q 201.43 -13.55 203.31 -13.55 L 203.31 -13.55 Q 204.96 -13.55 206.26 -13.02 Q 207.56 -12.49 208.31 -11.54 Q 209.05 -10.58 209.05 -9.35 L 209.05 -9.35 Q 209.05 -7.5 207.47 -6.48 Q 205.88 -5.46 203.67 -5.46 L 203.67 -5.46 Q 202.24 -5.46 201.01 -5.75 Q 199.78 -6.05 198.52 -6.61 L 198.52 -6.61 L 198.52 -6.36 Q 198.52 -5.04 199.15 -4.03 Q 199.78 -3.02 200.84 -2.49 Q 201.91 -1.96 203.17 -1.96 L 203.17 -1.96 Q 206.02 -1.96 208.15 -3.75 L 208.15 -3.75 Z M 203.5 -11.37 Q 201.99 -11.37 200.69 -10.5 Q 199.39 -9.63 198.83 -8.15 L 198.83 -8.15 Q 200.96 -7.39 203.08 -7.39 L 203.08 -7.39 Q 204.48 -7.39 205.39 -7.91 Q 206.3 -8.43 206.3 -9.35 L 206.3 -9.35 Q 206.3 -10.25 205.52 -10.81 Q 204.74 -11.37 203.5 -11.37 L 203.5 -11.37 Z M 223.8 -3.75 L 224.98 -1.96 Q 222.29 0.39 218.85 0.39 L 218.85 0.39 Q 216.97 0.39 215.29 -0.39 Q 213.61 -1.18 212.58 -2.69 Q 211.54 -4.2 211.54 -6.27 L 211.54 -6.27 Q 211.54 -8.48 212.6 -10.14 Q 213.67 -11.79 215.38 -12.67 Q 217.08 -13.55 218.96 -13.55 L 218.96 -13.55 Q 220.61 -13.55 221.91 -13.02 Q 223.22 -12.49 223.96 -11.54 Q 224.7 -10.58 224.7 -9.35 L 224.7 -9.35 Q 224.7 -7.5 223.12 -6.48 Q 221.54 -5.46 219.32 -5.46 L 219.32 -5.46 Q 217.9 -5.46 216.66 -5.75 Q 215.43 -6.05 214.17 -6.61 L 214.17 -6.61 L 214.17 -6.36 Q 214.17 -5.04 214.8 -4.03 Q 215.43 -3.02 216.5 -2.49 Q 217.56 -1.96 218.82 -1.96 L 218.82 -1.96 Q 221.68 -1.96 223.8 -3.75 L 223.8 -3.75 Z M 219.16 -11.37 Q 217.64 -11.37 216.34 -10.5 Q 215.04 -9.63 214.48 -8.15 L 214.48 -8.15 Q 216.61 -7.39 218.74 -7.39 L 218.74 -7.39 Q 220.14 -7.39 221.05 -7.91 Q 221.96 -8.43 221.96 -9.35 L 221.96 -9.35 Q 221.96 -10.25 221.17 -10.81 Q 220.39 -11.37 219.16 -11.37 L 219.16 -11.37 Z M 243.07 -2.27 L 243.66 -0.25 Q 243.26 -0.03 242.7 0.13 Q 242.14 0.28 241.53 0.28 L 241.53 0.28 Q 240.49 0.28 239.74 -0.27 Q 238.98 -0.81 238.7 -1.85 L 238.7 -1.85 Q 237.58 -0.84 236.33 -0.22 Q 235.09 0.39 233.58 0.39 L 233.58 0.39 Q 231.87 0.39 230.4 -0.48 Q 228.93 -1.34 228.06 -2.9 Q 227.19 -4.45 227.19 -6.41 L 227.19 -6.41 Q 227.19 -8.46 228.1 -10.09 Q 229.01 -11.73 230.58 -12.64 Q 232.15 -13.55 234.05 -13.55 L 234.05 -13.55 Q 236.49 -13.55 238.53 -11.76 L 238.53 -11.76 L 238.53 -17 L 235.56 -17 L 235.56 -19.21 L 241.22 -19.21 L 241.22 -3.39 Q 241.22 -2.04 242.14 -2.04 L 242.14 -2.04 Q 242.76 -2.04 243.07 -2.27 L 243.07 -2.27 Z M 230.05 -6.44 Q 230.05 -4.42 231.18 -3.19 Q 232.32 -1.96 234.14 -1.96 L 234.14 -1.96 Q 236.24 -1.96 238.53 -3.86 L 238.53 -3.86 L 238.53 -9.66 Q 236.57 -11.23 234.67 -11.23 L 234.67 -11.23 Q 233.35 -11.23 232.29 -10.61 Q 231.22 -10 230.64 -8.9 Q 230.05 -7.81 230.05 -6.44 L 230.05 -6.44 Z" stroke-linecap="round" />
</g>
<g transform="matrix(-0.5054100028456081 0 0 -0.5054100028456081 200.2342788254354 462.62274783175343)" style="" id="logo-logo"  >
	<g transform="matrix(0.302 0 0 -0.302 75.54602000000006 8.431999999999988)"  >
<path style="stroke: none; stroke-width: 1; stroke-dasharray: none; stroke-linecap: butt; stroke-dashoffset: 0; stroke-linejoin: miter; stroke-miterlimit: 10; fill: rgb(66,133,244); fill-rule: evenodd; opacity: 1;"  paint-order="stroke"  transform=" translate(-1864.9050000000002, -1514.3449999999998)" d="m 1785.4 1410.07 l 126.75 126.75 l -52.52 52.56 l -74.23 -74.24 l -26.98 26.97 l 106.49 106.48 l 106.48 -106.5 l -159.03 -158.98 l 52.55 -52.56 c 18.51 -18.5 37.02 -37 55.5 -55.51 c -5.74 31.26 -11.49 62.5 -17.26 93.76 l 173.3 173.31 c -70.5 70.52 -141.02 141.03 -211.54 211.54 l -211.55 -211.56 c 44 -44 88.03 -88.01 132.04 -132.02" stroke-linecap="round" />
</g>
	<g transform="matrix(0.302 0 0 -0.302 -8.423979999999915 75.53799999999998)"  >
<path style="stroke: none; stroke-width: 1; stroke-dasharray: none; stroke-linecap: butt; stroke-dashoffset: 0; stroke-linejoin: miter; stroke-miterlimit: 10; fill: rgb(52,168,83); fill-rule: evenodd; opacity: 1;"  paint-order="stroke"  transform=" translate(-1588.2649999999999, -1293.2350000000001)" d="m 1616.02 1081.68 c 70.5 70.52 141.04 141.02 211.56 211.55 l -211.56 211.56 c -44.02 -44.02 -88.03 -88.02 -132.05 -132.06 l 126.76 -126.75 l 52.53 52.54 l -74.21 74.21 l 26.97 26.99 l 106.47 -106.49 l -106.47 -106.45 l -159.01 158.99 l -52.54 -52.54 c -18.51 -18.48 -37.01 -37.02 -55.52 -55.5 c 31.27 5.75 62.52 11.5 93.76 17.23 l 173.31 -173.28" stroke-linecap="round" />
</g>
	<g transform="matrix(0.302 0 0 -0.302 -75.53997999999996 -8.432000000000045)"  >
<path style="stroke: none; stroke-width: 1; stroke-dasharray: none; stroke-linecap: butt; stroke-dashoffset: 0; stroke-linejoin: miter; stroke-miterlimit: 10; fill: rgb(251,188,5); fill-rule: evenodd; opacity: 1;"  paint-order="stroke"  transform=" translate(-1367.1350000000002, -1569.88)" d="m 1446.65 1674.15 l -126.76 -126.74 l 52.54 -52.54 l 74.22 74.22 l 26.96 -26.98 l -106.47 -106.47 l -106.48 106.45 l 159.03 159.03 l -52.55 52.56 c -18.5 18.49 -36.99 36.98 -55.5 55.51 c 5.75 -31.28 11.5 -62.54 17.25 -93.77 l -173.32 -173.31 c 70.52 -70.52 141.06 -141.03 211.58 -211.54 l 211.55 211.54 c -44.01 44.03 -88.04 88.04 -132.05 132.04" stroke-linecap="round" />
</g>
	<g transform="matrix(0.302 0 0 -0.302 8.43002000000007 -75.53799999999998)"  >
<path style="stroke: none; stroke-width: 1; stroke-dasharray: none; stroke-linecap: butt; stroke-dashoffset: 0; stroke-linejoin: miter; stroke-miterlimit: 10; fill: rgb(234,67,53); fill-rule: evenodd; opacity: 1;"  paint-order="stroke"  transform=" translate(-1643.78, -1790.995)" d="m 1404.47 1791 l 211.55 -211.56 c 44.03 43.99 88.04 88.02 132.05 132.04 l -126.76 126.76 l -52.54 -52.53 l 74.21 -74.21 l -26.96 -26.97 l -106.47 106.47 l 106.47 106.47 l 159.02 -159.02 l 52.54 52.55 c 18.51 18.48 37.01 37.01 55.51 55.48 c -31.25 -5.72 -62.5 -11.48 -93.77 -17.22 l -173.3 173.29 C 1545.5 1932.03 1475 1861.49 1404.47 1791" stroke-linecap="round" />
</g>
</g>
<g transform="matrix(1.5745007680491552 0 0 1.5745007680491552 800.9423494611428 448.12655934805656)"  >
<path style="stroke: none; stroke-width: 0; stroke-dasharray: none; stroke-linecap: butt; stroke-dashoffset: 0; stroke-linejoin: miter; stroke-miterlimit: 4; fill: rgb(52,168,83); fill-rule: nonzero; opacity: 1;"  paint-order="stroke"  transform=" translate(-82.7, 21.125)" d="M 3 -41.25 L 12.4 -41.25 L 12.4 0 L 3 0 L 3 -41.25 Z M 27.25 0 L 18.4 0 L 18.4 -25.65 L 27.25 -25.65 L 27.25 -22.95 L 27.35 -22.95 Q 30.8 -26.4 34.7 -26.4 L 34.7 -26.4 Q 36.6 -26.4 38.48 -25.9 Q 40.35 -25.4 42.08 -24.35 Q 43.8 -23.3 44.88 -21.38 Q 45.95 -19.45 45.95 -16.9 L 45.95 -16.9 L 45.95 0 L 37.1 0 L 37.1 -14.5 Q 37.1 -16.5 35.83 -18 Q 34.55 -19.5 32.5 -19.5 L 32.5 -19.5 Q 30.5 -19.5 28.88 -17.95 Q 27.25 -16.4 27.25 -14.5 L 27.25 -14.5 L 27.25 0 Z M 53.2 -3.18 Q 49.6 -7.1 49.6 -12.8 Q 49.6 -18.5 53.2 -22.45 Q 56.8 -26.4 62.35 -26.4 L 62.35 -26.4 Q 67.45 -26.4 70.75 -23.2 L 70.75 -23.2 L 70.75 -43 L 79.6 -43 L 79.6 0 L 70.85 0 L 70.85 -2.9 L 70.75 -2.9 Q 67.45 0.75 62.35 0.75 L 62.35 0.75 Q 56.8 0.75 53.2 -3.18 Z M 60.73 -17.15 Q 59 -15.45 59 -12.8 Q 59 -10.15 60.65 -8.47 Q 62.3 -6.8 65 -6.8 L 65 -6.8 Q 67.6 -6.8 69.28 -8.5 Q 70.95 -10.2 70.95 -12.8 L 70.95 -12.8 Q 70.95 -15.45 69.23 -17.15 Q 67.5 -18.85 65 -18.85 L 65 -18.85 Q 62.45 -18.85 60.73 -17.15 Z M 86.45 -39.95 Q 88 -41.5 90.15 -41.5 Q 92.3 -41.5 93.85 -39.95 Q 95.4 -38.4 95.4 -36.25 Q 95.4 -34.1 93.85 -32.55 Q 92.3 -31 90.15 -31 Q 88 -31 86.45 -32.55 Q 84.9 -34.1 84.9 -36.25 Q 84.9 -38.4 86.45 -39.95 Z M 94.45 -25.65 L 85.6 -25.65 L 85.6 0 L 94.45 0 L 94.45 -25.65 Z M 102.45 -3.18 Q 98.85 -7.1 98.85 -12.8 Q 98.85 -18.5 102.45 -22.45 Q 106.05 -26.4 111.6 -26.4 L 111.6 -26.4 Q 116.7 -26.4 120 -23.2 L 120 -23.2 L 120 -25.65 L 128.85 -25.65 L 128.85 0 L 120.1 0 L 120.1 -2.9 L 120 -2.9 Q 116.7 0.75 111.6 0.75 L 111.6 0.75 Q 106.05 0.75 102.45 -3.18 Z M 109.97 -17.15 Q 108.25 -15.45 108.25 -12.8 Q 108.25 -10.15 109.9 -8.47 Q 111.55 -6.8 114.25 -6.8 L 114.25 -6.8 Q 116.85 -6.8 118.52 -8.5 Q 120.2 -10.2 120.2 -12.8 L 120.2 -12.8 Q 120.2 -15.45 118.47 -17.15 Q 116.75 -18.85 114.25 -18.85 L 114.25 -18.85 Q 111.7 -18.85 109.97 -17.15 Z M 143.7 0 L 134.85 0 L 134.85 -25.65 L 143.7 -25.65 L 143.7 -22.95 L 143.8 -22.95 Q 147.25 -26.4 151.15 -26.4 L 151.15 -26.4 Q 153.05 -26.4 154.93 -25.9 Q 156.8 -25.4 158.53 -24.35 Q 160.25 -23.3 161.32 -21.38 Q 162.4 -19.45 162.4 -16.9 L 162.4 -16.9 L 162.4 0 L 153.55 0 L 153.55 -14.5 Q 153.55 -16.5 152.28 -18 Q 151 -19.5 148.95 -19.5 L 148.95 -19.5 Q 146.95 -19.5 145.32 -17.95 Q 143.7 -16.4 143.7 -14.5 L 143.7 -14.5 L 143.7 0 Z" stroke-linecap="round" />
</g>
</svg>